<?xml version="1.0" encoding="UTF-8" standalone="no"?>
<!DOCTYPE svg PUBLIC "-//W3C//DTD SVG 1.1//EN" "http://www.w3.org/Graphics/SVG/1.1/DTD/svg11.dtd">
<svg width="100%" height="100%" viewBox="0 0 30 30" version="1.1" xmlns="http://www.w3.org/2000/svg" xmlns:xlink="http://www.w3.org/1999/xlink" xml:space="preserve" style="fill-rule:evenodd;clip-rule:evenodd;stroke-linejoin:round;stroke-miterlimit:1.41421;">
    <g transform="matrix(0.969857,0,0,0.969857,-251.452,-2578.32)">
        <path d="M267.516,2667.7C268.349,2667.7 269.022,2667.09 269.022,2666.35C269.022,2665.6 268.349,2664.99 267.516,2664.99C266.686,2664.99 266.01,2665.6 266.01,2666.35C266.01,2667.09 266.686,2667.7 267.516,2667.7" style="fill:rgb(176,247,255);fill-rule:nonzero;"/>
    </g>
    <g transform="matrix(0.969857,0,0,0.969857,-251.452,-2578.32)">
        <path d="M274.393,2665.22C275.819,2665.22 276.974,2664.18 276.974,2662.9C276.974,2661.62 275.819,2660.58 274.393,2660.58C272.969,2660.58 271.811,2661.62 271.811,2662.9C271.811,2664.18 272.969,2665.22 274.393,2665.22" style="fill:rgb(176,247,255);fill-rule:nonzero;"/>
    </g>
    <g transform="matrix(0.969857,0,0,0.969857,-251.452,-2578.32)">
        <path d="M281.843,2667.78C282.676,2667.78 283.349,2667.17 283.349,2666.42C283.349,2665.67 282.676,2665.07 281.843,2665.07C281.012,2665.07 280.338,2665.67 280.338,2666.42C280.338,2667.17 281.012,2667.78 281.843,2667.78" style="fill:rgb(176,247,255);fill-rule:nonzero;"/>
    </g>
    <g transform="matrix(0.969857,0,0,0.969857,-251.452,-2578.32)">
        <rect x="265.071" y="2682.61" width="18.644" height="4.646" style="fill:rgb(176,247,255);fill-rule:nonzero;"/>
    </g>
    <g transform="matrix(0.969857,0,0,0.969857,-251.452,-2578.32)">
        <path d="M287.619,2663.6C286.195,2663.6 285.039,2664.64 285.039,2665.92C285.039,2667.2 286.195,2668.24 287.619,2668.24C289.045,2668.24 290.199,2667.2 290.199,2665.92C290.199,2664.64 289.045,2663.6 287.619,2663.6" style="fill:rgb(176,247,255);fill-rule:nonzero;"/>
    </g>
    <g transform="matrix(0.969857,0,0,0.969857,-251.452,-2578.32)">
        <path d="M264.431,2666C264.431,2664.72 263.277,2663.68 261.847,2663.68C260.425,2663.68 259.267,2664.72 259.267,2666C259.267,2667.28 260.425,2668.33 261.847,2668.33C263.277,2668.33 264.431,2667.28 264.431,2666" style="fill:rgb(176,247,255);fill-rule:nonzero;"/>
    </g>
    <g transform="matrix(0.969857,0,0,0.969857,-251.452,-2578.32)">
        <path d="M284.713,2668.67L281.179,2671.86L281.477,2668.61C281.477,2668.61 280.989,2667.88 280.354,2668.47L278.213,2671.21L275.424,2666.82C275.424,2666.82 274.655,2666.03 273.358,2666.82L270.637,2671.1L268.793,2668.47C268.793,2668.47 268.322,2667.73 267.728,2668.52L267.922,2672.06L264.437,2668.67C264.437,2668.67 263.36,2668.24 262.846,2669.29L265.097,2681.68L283.683,2681.68L286.78,2669.6C286.78,2669.6 286.434,2668.01 284.713,2668.67" style="fill:rgb(176,247,255);fill-rule:nonzero;"/>
    </g>
</svg>
