<?xml version="1.0" encoding="UTF-8" standalone="no"?>
<!DOCTYPE svg PUBLIC "-//W3C//DTD SVG 1.1//EN" "http://www.w3.org/Graphics/SVG/1.1/DTD/svg11.dtd">
<svg width="100%" height="100%" viewBox="0 0 60 60" version="1.1" xmlns="http://www.w3.org/2000/svg" xmlns:xlink="http://www.w3.org/1999/xlink" xml:space="preserve" style="fill-rule:evenodd;clip-rule:evenodd;stroke-linejoin:round;stroke-miterlimit:1.41421;">
    <g transform="matrix(0.114318,0,0,0.114318,3.08606,3.61958)">
        <g transform="matrix(1,0,0,1,-17.495,-26.2425)">
            <path d="M204.192,62.194C218.339,41.722 233.531,20.581 255.155,7.474C276.478,20.256 291.521,41.021 305.466,61.13C338.313,110.884 358.395,170.645 354.344,230.708C364.959,239.606 375.881,248.149 386.338,257.229C401.349,271.026 408.358,292.548 404.744,312.556C399.708,337.831 394.868,363.163 389.538,388.369C386.575,401.337 369.03,407.274 358.715,398.989C341.594,384.698 324.899,369.881 307.783,355.572C294.833,368.034 277.63,376.344 259.569,377.345C238.778,378.811 218.194,370.189 203.121,356.103C190.841,365.504 179.455,376.789 167.457,386.858C161.658,391.518 156.836,397.642 149.973,400.824C139.333,405.389 125.631,398.576 123.226,387.139C117.747,362.497 112.023,337.899 106.706,313.219C102.385,292.341 110.038,269.609 126.125,255.612C135.438,247.79 144.881,240.125 154.368,232.516C157.011,231.126 155.683,227.92 155.833,225.565C153.005,167.614 172.8,110.333 204.192,62.194ZM220.995,138.526C208.571,154.52 210.074,179.294 224.483,193.578C239.738,210.387 268.633,211 284.589,194.868C296.906,183.615 301.071,164.722 295.192,149.197C289.805,134.23 275.383,123.002 259.521,121.606C244.873,119.92 229.706,126.659 220.995,138.526Z" style="fill:rgb(2,2,2);fill-rule:nonzero;"/>
            <path d="M198.263,407.819C198.05,400.553 207.093,395.557 213.205,399.402C239.075,412.722 271.232,412.716 297.101,399.395C303.038,395.75 311.837,400.128 312.056,407.198C312.143,422.63 312.161,438.078 312.08,453.515C312.199,461.048 302.248,465.852 296.399,461.141C291.947,457.215 287.932,452.8 283.649,448.68C276.873,461.881 270.486,475.282 263.654,488.452C260.373,494.727 250.121,494.77 246.777,488.557C239.907,475.362 233.564,461.881 226.656,448.699C222.435,452.856 218.408,457.247 213.962,461.167C208.138,465.901 198.206,461.005 198.287,453.52C198.163,438.291 198.244,423.055 198.263,407.819Z" style="fill:rgb(2,2,2);fill-rule:nonzero;"/>
        </g>
        <circle cx="254.831" cy="164.509" r="20.812" style="fill:rgb(2,2,2);"/>
    </g>
</svg>
